<?xml version="1.0" encoding="UTF-8" standalone="no"?>
<!-- Created with Inkscape (http://www.inkscape.org/) -->
<svg
   xmlns:dc="http://purl.org/dc/elements/1.1/"
   xmlns:cc="http://web.resource.org/cc/"
   xmlns:rdf="http://www.w3.org/1999/02/22-rdf-syntax-ns#"
   xmlns:svg="http://www.w3.org/2000/svg"
   xmlns="http://www.w3.org/2000/svg"
   xmlns:xlink="http://www.w3.org/1999/xlink"
   xmlns:sodipodi="http://sodipodi.sourceforge.net/DTD/sodipodi-0.dtd"
   xmlns:inkscape="http://www.inkscape.org/namespaces/inkscape"
   version="1.0"
   width="505.8508"
   height="668.22455"
   id="svg11849"
   sodipodi:version="0.32"
   inkscape:version="0.45.1"
   sodipodi:docname="Martouf_Scout_scarf_neuch_tel.svg"
   inkscape:output_extension="org.inkscape.output.svg.inkscape"
   sodipodi:docbase="C:\Documents and Settings\Molumen\Desktop">
  <metadata
     id="metadata81">
    <rdf:RDF>
      <cc:Work
         rdf:about="">
        <dc:format>image/svg+xml</dc:format>
        <dc:type
           rdf:resource="http://purl.org/dc/dcmitype/StillImage" />
      </cc:Work>
    </rdf:RDF>
  </metadata>
  <sodipodi:namedview
     inkscape:window-height="573"
     inkscape:window-width="739"
     inkscape:pageshadow="2"
     inkscape:pageopacity="0.0"
     guidetolerance="10.0"
     gridtolerance="10.0"
     objecttolerance="10.0"
     borderopacity="1.0"
     bordercolor="#666666"
     pagecolor="#ffffff"
     id="base"
     inkscape:zoom="0.35824168"
     inkscape:cx="372.04724"
     inkscape:cy="526.18109"
     inkscape:window-x="44"
     inkscape:window-y="58"
     inkscape:current-layer="svg11849" />
  <defs
     id="defs11851">
    <linearGradient
       x1="372.07092"
       y1="788.74243"
       x2="438.74911"
       y2="767.09601"
       id="linearGradient11436"
       xlink:href="#linearGradient4384"
       gradientUnits="userSpaceOnUse"
       gradientTransform="translate(2,-72)" />
    <linearGradient
       x1="359.57092"
       y1="803.09601"
       x2="455.74911"
       y2="764.59601"
       id="linearGradient11434"
       xlink:href="#linearGradient4384"
       gradientUnits="userSpaceOnUse" />
    <radialGradient
       cx="481.07095"
       cy="736.79456"
       r="37.350437"
       fx="481.07095"
       fy="736.79456"
       id="radialGradient11432"
       xlink:href="#linearGradient4384"
       gradientUnits="userSpaceOnUse"
       gradientTransform="matrix(1,0,0,1.2014,2,-149.8154)" />
    <linearGradient
       x1="150.87665"
       y1="618.10736"
       x2="230.62074"
       y2="527.62006"
       id="linearGradient11430"
       xlink:href="#linearGradient9318"
       gradientUnits="userSpaceOnUse"
       gradientTransform="translate(94.10556,-274.2412)" />
    <linearGradient
       x1="80.639412"
       y1="570.85083"
       x2="149.90511"
       y2="520.66016"
       id="linearGradient11428"
       xlink:href="#linearGradient4384"
       gradientUnits="userSpaceOnUse"
       gradientTransform="translate(8.363961,-188.3122)" />
    <linearGradient
       id="linearGradient9318">
      <stop
         style="stop-color:#ffffff;stop-opacity:0.7751323"
         offset="0"
         id="stop9320" />
      <stop
         style="stop-color:#ffffff;stop-opacity:0"
         offset="1"
         id="stop9322" />
    </linearGradient>
    <linearGradient
       x1="121.62374"
       y1="551.63934"
       x2="221.33839"
       y2="508.63934"
       id="linearGradient11426"
       xlink:href="#linearGradient9318"
       gradientUnits="userSpaceOnUse"
       gradientTransform="translate(201,-101)" />
    <linearGradient
       id="linearGradient4384">
      <stop
         style="stop-color:#ffffff;stop-opacity:0.7751323"
         offset="0"
         id="stop4385" />
      <stop
         style="stop-color:#ffffff;stop-opacity:0"
         offset="1"
         id="stop4386" />
    </linearGradient>
    <linearGradient
       x1="128.72267"
       y1="551.46777"
       x2="222.03"
       y2="511.46777"
       id="linearGradient11424"
       xlink:href="#linearGradient4384"
       gradientUnits="userSpaceOnUse" />
  </defs>
  <g
     id="layer1"
     transform="translate(-122.07464,-198.24991)">
    <g
       transform="matrix(4.22067,0,0,4.22067,-244.3769,164.1478)"
       id="g7226">
      <g
         transform="translate(75.35833,-7.958636)"
         id="g6994">
        <path
           d="M 20.011485,23.302519 C 15.633721,27.073733 12.703519,37.916625 12.231622,41.875845 C 10.635921,55.263802 16.69768,74.506264 17.160809,76.185776"
           style="fill:none;fill-opacity:0.75;fill-rule:evenodd;stroke:#000000;stroke-width:1px;stroke-linecap:butt;stroke-linejoin:miter;stroke-opacity:1"
           id="path6964" />
        <path
           d="M 147.72469,122.00292 C 140.38569,121.66721 140.12029,121.60996 135.29657,116.50057 C 128.77732,109.63311 122.31814,96.184934 117.81383,88.869156 C 114.0188,81.531688 110.05105,74.270653 106.36925,66.885404 C 101.98313,56.41124 97.633954,44.089415 102.86985,33.920625 C 105.11217,28.054662 115.89113,22.912743 121.55473,24.554745 C 133.00559,28.12117 136.17819,33.946497 145.42282,55.669054 C 152.71468,68.176243 166.21135,106.35533 169.69116,114.75899 C 176.05461,112.93004 175.63894,113.35842 179.65111,112.30363 C 182.11647,111.65549 160.62764,57.485901 151.36089,40.088978 C 142.49913,23.452363 138.10413,14.876349 125.38487,10.792768 C 122.53699,9.8784431 109.92553,4.2765803 95.202281,15.436228"
           transform="translate(-75.35833,7.958636)"
           style="fill:none;fill-opacity:0.75;fill-rule:evenodd;stroke:#000000;stroke-width:1px;stroke-linecap:butt;stroke-linejoin:miter;stroke-opacity:1"
           id="path7219" />
        <path
           d="M 92.343279,68.008606 C 96.842124,81.406249 112.70373,114.74614 126.31796,123.62005 C 131.6457,129.43043 145.11487,134.42782 153.38865,132.24773"
           transform="translate(-75.35833,7.958636)"
           style="fill:none;fill-opacity:0.75;fill-rule:evenodd;stroke:#000000;stroke-width:1px;stroke-linecap:butt;stroke-linejoin:miter;stroke-opacity:1"
           id="path6966" />
      </g>
      <path
         d="M 156.40677,145.56523 C 155.98422,142.74753 158.32192,137.32619 160.63377,135.87623 C 162.52977,134.70301 164.73338,133.88944 166.98167,133.87893 C 169.12024,133.91452 173.7999,136.79657 175.30145,134.76349 C 176.90804,131.55627 174.45015,128.77948 172.9874,124.57185"
         style="fill:none;fill-opacity:0.75;fill-rule:evenodd;stroke:#000000;stroke-width:1px;stroke-linecap:butt;stroke-linejoin:miter;stroke-opacity:1"
         id="path7099" />
      <path
         d="M 162.79403,117.26093 C 165.27064,120.09824 166.15483,123.39053 167.02833,126.68587"
         style="fill:none;fill-opacity:0.75;fill-rule:evenodd;stroke:#000000;stroke-width:1px;stroke-linecap:butt;stroke-linejoin:miter;stroke-opacity:1"
         id="path7116" />
      <path
         d="M 155.69081,118.9837 C 154.63204,118.9837 155.59449,126.97941 157.00719,129.55484"
         style="fill:none;fill-opacity:0.75;fill-rule:evenodd;stroke:#000000;stroke-width:1px;stroke-linecap:butt;stroke-linejoin:miter;stroke-opacity:1"
         id="path7118" />
      <path
         d="M 186.32908,132.24873 C 228.7172,151.90088 190.41453,139.43823 187.82132,138.22806 L 185.88683,137.87634"
         style="fill:none;fill-opacity:0.75;fill-rule:evenodd;stroke:#000000;stroke-width:1px;stroke-linecap:butt;stroke-linejoin:miter;stroke-opacity:1"
         id="path7163" />
      <path
         d="M 159.33157,136.82115 C 170.95673,164.11846 177.46413,186.59414 169.00402,134.53494 L 169.00402,134.35907"
         style="fill:none;fill-opacity:0.75;fill-rule:evenodd;stroke:#000000;stroke-width:1px;stroke-linecap:butt;stroke-linejoin:miter;stroke-opacity:1"
         id="path7178" />
      <path
         d="M 147.17572,122.02518 C 153.23659,121.71067 155.30386,120.31966 155.49808,119.12327 C 157.88241,115.1856 160.26674,115.52004 162.65107,117.18196 L 166.29323,115.71364 L 169.77513,114.71881"
         style="fill:none;fill-opacity:0.75;fill-rule:evenodd;stroke:#000000;stroke-width:1px;stroke-linecap:butt;stroke-linejoin:miter;stroke-opacity:1"
         id="path7194" />
      <path
         d="M 167.17255,126.6513 C 173.7195,124.07587 183.05895,119.25794 184.73382,125.94784 L 186.45343,132.78697"
         style="fill:none;fill-opacity:0.75;fill-rule:evenodd;stroke:#000000;stroke-width:1px;stroke-linecap:butt;stroke-linejoin:miter;stroke-opacity:1"
         id="path7198" />
      <path
         d="M 179.75486,112.31041 C 188.89033,110.80861 189.03356,130.78686 186.08038,132.37307"
         style="fill:none;fill-opacity:0.75;fill-rule:evenodd;stroke:#000000;stroke-width:1px;stroke-linecap:butt;stroke-linejoin:miter;stroke-opacity:1"
         id="path7200" />
      <path
         d="M 186.45343,132.16704 C 186.99352,137.56728 184.30407,139.98668 184.30407,139.98668 C 179.84888,143.76253 175.3937,143.73124 170.93851,144.38325 L 170.93851,144.38325 L 170.93851,144.38325 L 170.93851,144.38325"
         style="fill:none;fill-opacity:0.75;fill-rule:evenodd;stroke:#000000;stroke-width:1px;stroke-linecap:butt;stroke-linejoin:miter;stroke-opacity:1"
         id="path7202" />
      <path
         d="M 163.20055,146.66946 C 152.82466,148.42809 151.03285,137.11425 152.54578,133.12803 C 155.71179,128.80218 171.08147,124.22264 174.6839,128.72522"
         style="fill:none;fill-opacity:0.75;fill-rule:evenodd;stroke:#000000;stroke-width:1px;stroke-linecap:butt;stroke-linejoin:miter;stroke-opacity:1"
         id="path7204" />
    </g>
    <g
       transform="translate(-5.322208e-5,-16.28257)"
       style="fill:#ffffff;fill-opacity:1;stroke:#ffffff;stroke-opacity:1"
       id="g8186">
      <path
         d="M 233.29659,637.81739 C 260.67256,635.7418 283.28798,642.7551 309.72516,653.35311 C 298.20681,640.47809 292.34172,627.6253 280.43944,608.71025 C 257.67346,591.78404 231.82871,591.5264 204.36802,591.03168 C 214.97321,607.86714 223.16741,623.36201 233.29659,637.81739 z "
         style="fill:#ffffff;fill-opacity:1;fill-rule:evenodd;stroke:#ffffff;stroke-width:1px;stroke-linecap:butt;stroke-linejoin:miter;stroke-opacity:1"
         id="path8152" />
      <path
         d="M 168.23501,517.10741 C 195.61098,515.03181 212.86926,523.83084 239.30644,534.42884 C 224.9664,505.94592 225.06172,506.33148 215.735,488.71455 C 192.96902,471.78835 173.90999,463.31642 146.4493,462.8217 C 149.95503,471.84776 156.39276,493.98192 168.23501,517.10741 z "
         style="fill:#ffffff;fill-opacity:1;fill-rule:evenodd;stroke:#ffffff;stroke-width:1px;stroke-linecap:butt;stroke-linejoin:miter;stroke-opacity:1"
         id="path8156" />
      <path
         d="M 128.5401,376.8726 C 155.91607,374.797 161.23327,383.25683 181.95617,400.2834 C 176.25119,381.6191 176.34882,370.10308 180.10609,345.01292 C 168.88791,326.77394 166.38644,318.04481 129.12132,309.12007 C 127.50281,336.46531 123.22378,348.31865 128.5401,376.8726 z "
         style="fill:#ffffff;fill-opacity:1;fill-rule:evenodd;stroke:#ffffff;stroke-width:1px;stroke-linecap:butt;stroke-linejoin:miter;stroke-opacity:1"
         id="path8158" />
      <path
         d="M 365.24871,738.24256 C 384.16288,718.34267 378.20706,701.26054 404.92472,691.39095 C 383.10317,695.63734 374.63822,697.31921 353.12385,695.9143 C 332.68343,703.59027 327.35601,706.11017 309.3949,716.87784 C 328.55242,726.53872 348.04053,734.31358 365.24871,738.24256 z "
         style="fill:#ffffff;fill-opacity:1;fill-rule:evenodd;stroke:#ffffff;stroke-width:1px;stroke-linecap:butt;stroke-linejoin:miter;stroke-opacity:1"
         id="path8160" />
      <path
         d="M 311.12698,239.69446 C 287.67032,261.39227 293.1872,293.17748 293.19678,293.23255 C 306.33885,298.04197 316.92012,308.80566 326.02674,323.03205 C 330.28193,297.2934 336.59405,279.01112 346.22979,272.77696 C 336.85164,259.67921 325.1222,248.93275 312.38967,239.18938"
         style="fill:#ffffff;fill-opacity:1;fill-rule:evenodd;stroke:#ffffff;stroke-width:1px;stroke-linecap:butt;stroke-linejoin:miter;stroke-opacity:1"
         id="path8164" />
      <path
         d="M 395.23413,355.58732 C 371.77747,377.28513 367.83006,406.2132 367.83964,406.26827 C 373.12457,416.97055 379.06298,433.26995 388.1696,447.49634 C 392.42479,421.75769 405.7012,403.65398 415.33694,397.41982 C 406.85165,382.71493 404.58648,370.89704 395.06824,355.61796"
         style="fill:#ffffff;fill-opacity:1;fill-rule:evenodd;stroke:#ffffff;stroke-width:1px;stroke-linecap:butt;stroke-linejoin:miter;stroke-opacity:1"
         id="path8166" />
      <path
         d="M 447.73413,472.55161 C 424.27747,494.24942 418.54435,517.10606 417.4825,517.87541 C 423.60322,534.00539 426.15878,537.31972 432.81246,556.96063 C 437.06765,531.22198 452.84405,515.4397 462.47979,509.20554 C 454.88736,492.35779 456.01506,491.7899 447.74682,472.40367"
         style="fill:#ffffff;fill-opacity:1;fill-rule:evenodd;stroke:#ffffff;stroke-width:1px;stroke-linecap:butt;stroke-linejoin:miter;stroke-opacity:1"
         id="path8168" />
      <path
         d="M 494.34127,590.76589 C 467.2734,605.96353 461.0055,633.25042 461.76821,634.66113 C 466.696,641.25626 464.77726,646.84138 472.81245,661.78205 C 488.5458,643.18626 486.2499,640.26112 507.65836,630.09839 C 501.48452,615.57207 503.2738,613.21847 495.24682,592.76081"
         style="fill:#ffffff;fill-opacity:1;fill-rule:evenodd;stroke:#ffffff;stroke-width:1px;stroke-linecap:butt;stroke-linejoin:miter;stroke-opacity:1"
         id="path8170" />
      <path
         d="M 154.28572,250.93361 C 196.33439,274.01001 190.12255,287.43431 202.14286,304.50504 C 213.70296,295.01867 222.61389,288.65623 236.07143,284.86218 C 219.68794,266.67666 219.9437,241.29579 171.42857,237.00503 L 162.85714,242.36218"
         style="fill:#ffffff;fill-opacity:1;fill-rule:evenodd;stroke:#ffffff;stroke-width:1px;stroke-linecap:butt;stroke-linejoin:miter;stroke-opacity:1"
         id="path8172" />
      <path
         d="M 472.75139,708.46652 C 471.27235,693.43211 471.37298,678.55567 479.31738,664.4636 C 492.78608,661.75691 506.25478,656.83638 519.72348,656.38238 C 514.41905,669.00088 516.28362,682.17085 516.8716,695.24262 C 511.25837,694.62458 499.86908,697.03897 475.27677,706.38494 L 475.78185,706.89001 L 475.78185,706.89001 L 475.78185,706.89001"
         style="fill:#ffffff;fill-opacity:1;fill-rule:evenodd;stroke:#ffffff;stroke-width:1px;stroke-linecap:butt;stroke-linejoin:miter;stroke-opacity:1"
         id="path8174" />
      <path
         d="M 495.04128,752.49481 C 524.2921,747.04088 525.28115,757.42077 537.40115,761.81706 C 532.79563,771.32723 522.50337,777.60585 508.61181,783.15653 C 500.10528,777.35766 493.89896,770.02532 474.50647,771.48376 C 473.52772,764.68142 472.47767,757.87909 471.95571,751.07675 C 478.86463,752.93267 489.8503,756.53718 490.90876,753.89274"
         style="fill:#ffffff;fill-opacity:1;fill-rule:evenodd;stroke:#ffffff;stroke-width:1px;stroke-linecap:butt;stroke-linejoin:miter;stroke-opacity:1"
         id="path8176" />
      <path
         d="M 417.34094,774.18245 C 415.42263,758.81645 405.4223,741.11092 420.07552,730.54194 C 435.64905,721.54467 450.35926,719.45404 464.99668,717.94567 C 459.31863,722.26877 458.68928,731.64057 460.12448,743.07693 C 455.10688,743.10554 450.74736,744.69904 437.81955,750.31134 C 428.43279,755.56683 421.57894,762.60525 417.42233,773.09089"
         style="fill:#ffffff;fill-opacity:1;fill-rule:evenodd;stroke:#ffffff;stroke-width:1px;stroke-linecap:butt;stroke-linejoin:miter;stroke-opacity:1"
         id="path8178" />
      <path
         d="M 552.42717,745.65842 C 549.64348,754.15036 553.27799,758.73849 555.20509,764.0899 C 578.97851,772.21757 602.45145,779.94459 622.25397,782.77772 C 607.74324,772.57995 592.16544,764.05957 553.5636,746.476"
         style="fill:#ffffff;fill-opacity:1;fill-rule:evenodd;stroke:#ffffff;stroke-width:1px;stroke-linecap:butt;stroke-linejoin:miter;stroke-opacity:1"
         id="path8180" />
      <path
         d="M 415.67777,714.52743 C 426.08562,695.75089 438.1835,693.0296 450.46676,692.06948 C 446.68358,685.6753 444.09863,678.42523 437.21748,674.24389 C 432.98984,673.58269 429.47648,669.8606 425.24884,671.74389 C 411.13028,676.32442 410.63706,691.90235 413.3616,708.16539"
         style="fill:#ffffff;fill-opacity:1;fill-rule:evenodd;stroke:#ffffff;stroke-width:1px;stroke-linecap:butt;stroke-linejoin:miter;stroke-opacity:1"
         id="path8182" />
      <path
         d="M 471.74124,779.621 C 460.39547,789.08844 456.91056,802.48631 454.98706,816.66488 C 463.98996,838.48362 472.6135,863.52696 482.49578,877.87102 C 486.421,857.60045 476.3136,816.22649 473.0217,783.66161"
         style="fill:#ffffff;fill-opacity:1;fill-rule:evenodd;stroke:#ffffff;stroke-width:1px;stroke-linecap:butt;stroke-linejoin:miter;stroke-opacity:1"
         id="path8184" />
    </g>
    <path
       d="M 129.99995,292.07961 C 136.31591,269.46153 144.43488,250.44946 154.74995,235.82961 C 183.45371,249.94534 193.57971,268.7055 201.24995,288.07961 C 191.93454,297.41504 183.86363,308.82463 180.49995,328.07961 C 173.05656,312.01063 157.42822,299.48847 129.99995,292.07961 z "
       style="fill:#7600c8;fill-opacity:1;fill-rule:evenodd;stroke:#7600c8;stroke-width:1px;stroke-linecap:butt;stroke-linejoin:miter;stroke-opacity:1"
       id="path8241" />
    <g
       transform="translate(-14.14214,9.091397)"
       style="fill:#279f62;fill-opacity:1;stroke:#279f62;stroke-opacity:1"
       id="g11479">
      <path
         d="M 509.89209,726.48821 C 518.73316,719.26029 512.21945,702.65903 502.39209,680.98821 C 510.82019,677.70392 518.88049,675.523 526.64209,674.23821 C 547.76495,674.95749 543.64992,681.98625 547.64209,686.98821 L 555.39209,716.73821 C 555.84415,723.23821 555.26221,729.73821 552.39209,736.23821 C 533.9105,726.32591 532.03546,722.92996 509.89209,726.48821 z "
         style="fill:#279f62;fill-opacity:1;fill-rule:evenodd;stroke:#279f62;stroke-width:1px;stroke-linecap:butt;stroke-linejoin:miter;stroke-opacity:1"
         id="path8275" />
      <path
         d="M 187.14209,211.23821 C 231.95506,184.02617 279.16298,188.40945 324.64209,214.48821 C 308.93994,231.28172 305.06635,248.53017 306.64209,265.98821 C 291.32115,260.22582 280.59029,249.62335 249.64209,259.48821 C 235.86577,240.55848 230.27953,217.04914 187.14209,211.23821 z "
         style="fill:#279f62;fill-opacity:1;fill-rule:evenodd;stroke:#279f62;stroke-width:1px;stroke-linecap:butt;stroke-linejoin:miter;stroke-opacity:1"
         id="path8247" />
      <path
         d="M 360.89209,247.48821 C 351.47521,254.47821 344.56272,270.09447 341.14209,297.73821 C 356.95146,320.15759 369.02444,350.79703 381.64209,380.23821 C 386.93614,353.50819 397.98055,341.47352 409.14209,329.73821 C 392.37357,292.72886 376.3275,265.8339 360.89209,247.48821 z "
         style="fill:#279f62;fill-opacity:1;fill-rule:evenodd;stroke:#279f62;stroke-width:1px;stroke-linecap:butt;stroke-linejoin:miter;stroke-opacity:1"
         id="path8249" />
      <path
         d="M 429.39209,372.48821 C 440.69315,396.21941 451.22623,421.4866 461.89209,446.48821 C 448.77609,456.49354 439.18804,472.67278 431.39209,491.98821 C 421.89209,467.40506 412.39209,443.84372 402.89209,423.23821 C 406.67266,402.53197 414.95086,385.19895 429.39209,372.48821 z "
         style="fill:#279f62;fill-opacity:1;fill-rule:evenodd;stroke:#279f62;stroke-width:1px;stroke-linecap:butt;stroke-linejoin:miter;stroke-opacity:1"
         id="path8251" />
      <path
         d="M 476.89209,483.98821 L 508.14209,565.23821 C 490.351,574.47764 480.79364,589.35067 475.64209,607.23821 L 447.39209,532.23821 C 450.47764,513.39442 459.15883,496.83976 476.89209,483.98821 z "
         style="fill:#279f62;fill-opacity:1;fill-rule:evenodd;stroke:#279f62;stroke-width:1px;stroke-linecap:butt;stroke-linejoin:miter;stroke-opacity:1"
         id="path8253" />
      <path
         d="M 521.39209,605.73821 C 524.80031,611.72371 526.12988,619.2682 526.89209,627.23821 L 486.89209,636.48821 C 497.33614,623.95031 507.11895,609.97975 521.39209,605.73821 z "
         style="fill:#279f62;fill-opacity:1;fill-rule:evenodd;stroke:#279f62;stroke-width:1px;stroke-linecap:butt;stroke-linejoin:miter;stroke-opacity:1"
         id="path8255" />
      <path
         d="M 559.14209,717.23821 C 558.56006,731.51421 557.37995,733.82884 556.14209,734.98821 L 568.89209,738.23821 C 565.83977,732.32154 562.55964,726.40488 566.64209,720.48821 L 559.14209,717.23821 z "
         style="fill:#279f62;fill-opacity:1;fill-rule:evenodd;stroke:#279f62;stroke-width:1px;stroke-linecap:butt;stroke-linejoin:miter;stroke-opacity:1"
         id="path8261" />
      <path
         d="M 489.14209,746.48821 C 490.15054,751.48821 490.80022,757.73821 491.14209,762.73821 C 501.1724,762.82195 510.41787,761.4864 521.64209,757.73821 C 512.40192,751.22891 504.12906,742.14246 489.14209,746.48821 z "
         style="fill:#279f62;fill-opacity:1;fill-rule:evenodd;stroke:#279f62;stroke-width:1px;stroke-linecap:butt;stroke-linejoin:miter;stroke-opacity:1"
         id="path8263" />
      <path
         d="M 479.64209,692.48821 C 473.1056,698.23779 472.80243,707.34378 474.89209,717.73821 C 484.64209,720.19962 494.39209,725.2412 504.14209,724.73821 C 512.53163,722.5597 510.46595,710.52714 507.14209,699.23821 C 498.39209,692.09728 488.39209,693.25736 479.64209,692.48821 z "
         style="fill:#279f62;fill-opacity:1;fill-rule:evenodd;stroke:#279f62;stroke-width:1px;stroke-linecap:butt;stroke-linejoin:miter;stroke-opacity:1"
         id="path8265" />
      <path
         d="M 432.64209,705.73821 C 425.36633,708.54578 418.5022,713.76499 413.89209,719.23821 C 411.88504,752.26945 421.73535,755.62489 427.14209,765.48821 L 430.89209,748.98821 L 432.64209,705.73821 z "
         style="fill:#279f62;fill-opacity:1;fill-rule:evenodd;stroke:#279f62;stroke-width:1px;stroke-linecap:butt;stroke-linejoin:miter;stroke-opacity:1"
         id="path8271" />
      <path
         d="M 441.89209,737.98821 C 435.2674,747.6225 432.52923,757.68863 431.89209,767.98821 C 440.4574,774.22463 448.20354,772.26935 456.14209,772.23821 L 441.89209,737.98821 z "
         style="fill:#279f62;fill-opacity:1;fill-rule:evenodd;stroke:#279f62;stroke-width:1px;stroke-linecap:butt;stroke-linejoin:miter;stroke-opacity:1"
         id="path8273" />
    </g>
    <g
       transform="translate(-14.14214,9.091397)"
       style="fill:#ff0000;fill-opacity:1;stroke:#ff0000;stroke-opacity:1"
       id="g11492">
      <path
         d="M 144.14209,282.98821 C 150.45805,260.37013 158.57702,241.35806 168.89209,226.73821 C 197.59585,240.85394 207.72185,259.6141 215.39209,278.98821 C 206.07668,288.32364 198.00577,299.73323 194.64209,318.98821 C 187.1987,302.91923 171.57036,290.39707 144.14209,282.98821 z "
         style="fill:#ff0000;fill-opacity:1;fill-rule:evenodd;stroke:#ff0000;stroke-width:1px;stroke-linecap:butt;stroke-linejoin:miter;stroke-opacity:1"
         id="path8243" />
      <path
         d="M 460.39209,650.23821 C 470.2057,645.03209 481.27206,642.33149 492.39209,639.73821 C 483.83423,652.55819 486.99698,668.08293 486.39209,682.73821 L 475.89209,686.98821 C 474.16352,673.59218 468.09135,661.64401 460.39209,650.23821 z "
         style="fill:#ff0000;fill-opacity:1;fill-rule:evenodd;stroke:#ff0000;stroke-width:1px;stroke-linecap:butt;stroke-linejoin:miter;stroke-opacity:1"
         id="path8257" />
      <path
         d="M 534.14209,630.73821 C 531.33929,640.74234 529.41796,652.06869 531.89209,669.98821 C 555.51691,675.54474 552.16153,693.28588 556.64209,707.48821 C 562.29875,690.44318 565.25898,634.79064 534.14209,630.73821 z "
         style="fill:#ff0000;fill-opacity:1;fill-rule:evenodd;stroke:#ff0000;stroke-width:1px;stroke-linecap:butt;stroke-linejoin:miter;stroke-opacity:1"
         id="path8259" />
      <path
         d="M 430.64209,688.98821 C 431.61837,692.70262 431.45605,694.70916 433.64209,700.23821 C 446.1225,695.8657 458.38499,691.05735 472.14209,689.23821 C 469.97605,681.73758 467.41067,673.8863 464.64209,666.98821 C 452.16448,668.2852 440.50997,670.07556 430.64209,688.98821 z "
         style="fill:#ff0000;fill-opacity:1;fill-rule:evenodd;stroke:#ff0000;stroke-width:1px;stroke-linecap:butt;stroke-linejoin:miter;stroke-opacity:1"
         id="path8267" />
      <path
         d="M 422.64209,665.73821 C 423.2809,677.32549 425.35275,689.32221 430.64209,702.23821 C 424.98022,705.04537 419.12281,707.78734 415.39209,711.23821 C 403.97542,715.00502 392.55876,712.82002 381.14209,712.23821 C 393.98249,695.96515 395.305,671.93015 422.64209,665.73821 z "
         style="fill:#ff0000;fill-opacity:1;fill-rule:evenodd;stroke:#ff0000;stroke-width:1px;stroke-linecap:butt;stroke-linejoin:miter;stroke-opacity:1"
         id="path8269" />
      <path
         d="M 445.14209,733.73821 L 468.39209,791.48821 C 470.68124,767.40816 478.71797,763.0341 485.39209,753.98821 L 480.89209,723.48821 C 468.62448,720.23704 456.74342,724.33022 445.14209,733.73821 z "
         style="fill:#ff0000;fill-opacity:1;fill-rule:evenodd;stroke:#ff0000;stroke-width:1px;stroke-linecap:butt;stroke-linejoin:miter;stroke-opacity:1"
         id="path8277" />
      <path
         d="M 247.13377,612.97719 C 265.64301,609.91355 289.92621,613.70648 323.50131,628.53354 C 339.74409,650.51933 354.98274,666.14563 368.40259,670.25284 C 354.43242,675.65174 341.39334,679.65402 323.85486,690.40538 C 292.77797,670.09917 267.84808,643.64597 247.13377,612.97719 z "
         style="fill:#ff0000;fill-opacity:1;fill-rule:evenodd;stroke:#ff0000;stroke-width:1px;stroke-linecap:butt;stroke-linejoin:miter;stroke-opacity:1"
         id="path8279" />
      <path
         d="M 182.07995,492.41549 C 191.0762,513.66826 204.53008,539.37865 218.1424,565.24748 C 246.82188,564.67283 274.01492,567.25686 295.21704,582.5716 L 254.5584,509.38605 C 230.56935,501.17265 206.94174,487.53778 182.07995,492.41549 z "
         style="fill:#ff0000;fill-opacity:1;fill-rule:evenodd;stroke:#ff0000;stroke-width:1px;stroke-linecap:butt;stroke-linejoin:miter;stroke-opacity:1"
         id="path8281" />
      <path
         d="M 142.48197,352.05479 C 158.28363,349.0916 175.03858,351.46685 195.51498,374.68221 C 210.53429,435.90842 218.27281,435.97607 229.10255,462.00989 C 201.90497,442.26705 181.8605,439.32422 160.86675,437.61471 C 153.02593,409.09474 146.55798,380.57476 142.48197,352.05479 z "
         style="fill:#ff0000;fill-opacity:1;fill-rule:evenodd;stroke:#ff0000;stroke-width:1px;stroke-linecap:butt;stroke-linejoin:miter;stroke-opacity:1"
         id="path8283" />
    </g>
    <g
       transform="translate(1.010009,-16.28253)"
       style="stroke:none;stroke-opacity:1"
       id="g9348">
      <path
         d="M 255.51464,668.24245 C 286.19775,698.96268 310.51378,729.303 352.88116,730.77181 C 389.06321,752.52046 188.92752,480.21249 176.21378,383.62229 C 167.22898,374.11445 162.20801,377.08461 129.67399,376.71524 C 131.17824,390.04084 132.61709,421.92362 152.38154,481.49656 C 175.17334,550.19434 229.36506,641.1639 255.51464,668.24245 z "
         style="fill:url(#linearGradient11424);fill-opacity:1;fill-rule:evenodd;stroke:none;stroke-width:3.75;stroke-linecap:round;stroke-linejoin:round;stroke-miterlimit:4;stroke-opacity:1"
         id="path2864" />
      <path
         d="M 470.33388,658.27794 C 473.75083,669.06239 486.77708,654.9586 512.85172,652.99364 C 561.70271,638.92564 401.97706,369.94425 363.26403,292.57204 C 354.27923,283.0642 327.5806,295.61405 322.62374,319.28631 C 341.24489,327.1466 450.62008,596.05805 470.33388,658.27794 z "
         style="fill:url(#linearGradient11426);fill-opacity:1;fill-rule:evenodd;stroke:none;stroke-width:3.75;stroke-linecap:round;stroke-linejoin:round;stroke-miterlimit:4;stroke-opacity:1"
         id="path9314" />
      <path
         d="M 266.56061,280.12752 C 250.5445,264.73571 271.04098,225.22198 256.61309,220.03439 C 233.47867,211.71633 191.08219,218.52596 162.07958,243.55734 C 152.62788,259.41476 121.08618,280.24896 126.09727,368.84475 C 127.24816,389.19238 144.25576,358.2909 181.03896,399.21585 C 191.09846,410.40803 172.85895,384.73682 180.55057,360.25305 C 188.79419,334.01218 198.61591,302.84674 230.2876,286.56202 C 241.59463,280.74824 275.65395,288.86641 266.56061,280.12752 z "
         style="fill:url(#linearGradient11428);fill-opacity:1;fill-rule:evenodd;stroke:none;stroke-width:1;stroke-linecap:round;stroke-linejoin:round;stroke-miterlimit:4;stroke-dasharray:none;stroke-opacity:1"
         id="path9324" />
      <path
         d="M 321.47014,315.53826 C 325.85776,320.01125 326.72831,287.42728 365.07377,288.49786 C 395.0136,256.69006 311.05346,224.08561 250.9718,218.53479 C 201.67003,213.9799 174.55403,235.74923 170.80967,235.2964 C 174.64494,237.26694 200.61594,240.92809 214.37925,255.49031 C 223.91899,265.5838 224.75203,269.04932 227.30938,273.92198 C 228.88499,276.92409 230.71636,285.53453 234.93257,285.1111 C 240.76741,284.52511 246.33887,281.56629 253.18452,281.39094 C 272.67314,280.89173 283.88231,288.29822 294.26105,293.45915 C 305.26824,300.60497 305.60064,299.35996 321.47014,315.53826 z "
         style="fill:url(#linearGradient11430);fill-opacity:1;fill-rule:evenodd;stroke:none;stroke-width:1;stroke-linecap:round;stroke-linejoin:round;stroke-miterlimit:4;stroke-dasharray:none;stroke-opacity:1"
         id="path9328" />
      <path
         d="M 477.01464,788.24245 C 519.69775,783.46268 545.01378,770.303 543.88116,738.77181 C 537.06321,708.52046 532.92752,698.21249 522.21378,699.62229 C 510.22898,699.61445 497.70801,702.58461 487.67399,705.21524 C 488.67824,705.54084 522.91193,768.69976 470.38154,750.49656 C 468.92982,749.9935 474.36506,764.1639 477.01464,788.24245 z "
         style="fill:url(#radialGradient11432);fill-opacity:1;fill-rule:evenodd;stroke:none;stroke-width:1;stroke-linecap:round;stroke-linejoin:round;stroke-miterlimit:4;stroke-dasharray:none;stroke-opacity:1"
         id="path9332" />
      <path
         d="M 446.51464,796.74245 C 520.23202,981.85536 463.88754,789.72362 452.38116,751.77181 C 445.56321,721.52046 470.92752,717.71249 460.21378,719.12229 C 448.28212,718.98159 418.20691,726.58072 401.38154,742.49656 C 396.0733,747.51786 395.86506,810.1639 446.51464,796.74245 z "
         style="fill:url(#linearGradient11434);fill-opacity:1;fill-rule:evenodd;stroke:none;stroke-width:1;stroke-linecap:round;stroke-linejoin:round;stroke-miterlimit:4;stroke-dasharray:none;stroke-opacity:1"
         id="path9338" />
      <path
         d="M 420.51464,725.74245 C 431.08547,720.97605 442.34443,718.96494 457.88116,715.27181 C 451.06321,685.02046 437.4728,667.42756 424.38154,671.49656 C 410.04551,675.95245 408.08298,699.78911 420.51464,725.74245 z "
         style="fill:url(#linearGradient11436);fill-opacity:1;fill-rule:evenodd;stroke:none;stroke-width:1;stroke-linecap:round;stroke-linejoin:round;stroke-miterlimit:4;stroke-dasharray:none;stroke-opacity:1"
         id="path9344" />
    </g>
  </g>
</svg>
